<svg xmlns="http://www.w3.org/2000/svg" width="46" height="46" viewBox="0 0 46 46" class="styles-profilePic-1-o_T72C"><defs><circle id="zboxvrxeza" cx="23" cy="23" r="23"></circle></defs><g fill="none" fill-rule="evenodd"><g><g transform="translate(-106 -55) translate(106 55)"><mask id="27lyiar2ob" fill="#fff"><use href="#zboxvrxeza"></use></mask><use fill="#282D33" href="#zboxvrxeza"></use><path fill="#FFF" fill-rule="nonzero" d="M28 18.5c0-3.033-2.467-5.5-5.5-5.5S17 15.467 17 18.5s2.467 5.5 5.5 5.5 5.5-2.467 5.5-5.5m4.917 12.41c.391 1.55-.655 3.09-2.074 3.09H15.157c-1.419 0-2.465-1.54-2.074-3.09.748-2.967 2.549-5.444 4.925-6.91 1.314 1.199 3.068 1.932 4.992 1.932S26.678 25.2 27.992 24c2.376 1.466 4.177 3.943 4.925 6.91" mask="url(#27lyiar2ob)"></path></g></g></g></svg>