<svg xmlns="http://www.w3.org/2000/svg" width="600" height="600" fill="none" viewBox="0 0 600 600"><g clip-path="url(#clip0)"><path fill="#FFD9BA" fill-rule="evenodd" d="M384.051 269.436c-23.676-54.886-18.571-89.918-59.752-105.833-41.181-15.915-73.321-.164-93.508 18.138-20.186 18.302-64.597 54.906-96.896 54.906-32.299 0-91.403 16.875-111.59 43.93-20.186 27.055-27.453 48.54-18.571 77.982 8.882 29.442 18.572 42.97 25.032 62.863 6.46 19.894 16.149 54.906 33.106 71.617 16.957 16.71 31.984 21.811 76.395 13.057 44.411-8.753 85.064 8.33 118.977 2.76 33.914-5.57 75.095 1.591 84.785-7.958 9.689-9.548 18.571-36.604 27.453-48.54 8.883-11.936 39.601-65.948 39.601-92.207 0-26.26-1.356-35.829-25.032-90.715z" clip-rule="evenodd"></path><g filter="url(#filter0_d)"><path fill="url(#paint0_radial)" fill-rule="evenodd" d="M76.195 474.724v34.782h66.042l-7.168-24.871-58.874-9.911z" clip-rule="evenodd"></path><path fill="#424A85" fill-rule="evenodd" d="M366.425 400.808s-23.304-12.594-31.18-17.967c-7.877-5.374-33.236-25.279-42.813-29.679-9.578-4.4-25.891-10.657-25.891-10.657l-111.822 4.315-4.111-4.315s-42.662 12.129-61.59 37.784c-18.927 25.655-28.208 87.898-28.208 87.898s25.453 11.731 37.955 14.431c12.501 2.701 36.304 2.017 36.304 2.017l7.168 24.871H310.58s-1.849-25.789-2.907-34.066c-1.057-8.277-2.211-16.546-2.211-16.546l26.696 12.99 34.267-71.076z" clip-rule="evenodd"></path><mask id="fyj7jqqlla" width="307" height="168" x="60" y="342" maskUnits="userSpaceOnUse"><path fill="#fff" fill-rule="evenodd" d="M366.425 400.808s-23.304-12.594-31.18-17.967c-7.877-5.374-33.236-25.279-42.813-29.679-9.578-4.4-25.891-10.657-25.891-10.657l-111.822 4.315-4.111-4.315s-42.662 12.129-61.59 37.784c-18.927 25.655-28.208 87.898-28.208 87.898s25.453 11.731 37.955 14.431c12.501 2.701 36.304 2.017 36.304 2.017l7.168 24.871H310.58s-1.849-25.789-2.907-34.066c-1.057-8.277-2.211-16.546-2.211-16.546l26.696 12.99 34.267-71.076z" clip-rule="evenodd"></path></mask><g fill-rule="evenodd" clip-rule="evenodd" mask="url(#fyj7jqqlla)"><path fill="url(#paint1_radial)" d="M142.238 509.505l-41.233-147.628-64.715 13.01 32.155 134.618h73.793z"></path><path fill="url(#paint2_radial)" d="M310.581 509.505s-1.609-26.987-3.364-38.799c-1.754-11.812-13.929-65.21-20.689-90.417-6.761-25.207-16.481-48.18-16.481-48.18l96.378 36.943 12.348 72.783-25.841 67.67h-42.351z"></path></g><path fill="url(#paint3_radial)" fill-rule="evenodd" d="M363.002 407.54s-12.117 24.124-16.533 33.429c-4.416 9.305-9.651 21.773-9.651 21.773s47.604 20.679 73.562 26.79c25.958 6.111 39.478 9.836 48.612 11.171 9.134 1.335 18.116-2.627 12.385-16.927-5.73-14.3-16.813-41.466-16.813-41.466l-91.562-34.77z" clip-rule="evenodd"></path><path fill="#E5E5E4" fill-rule="evenodd" d="M363.002 324.942l39.181 126.322 63.968 19.442s-33.91-82.476-41.384-100.768c-7.473-18.291-20.786-56.893-20.786-56.893l-40.979 11.897z" clip-rule="evenodd"></path><path fill="url(#paint4_radial)" fill-rule="evenodd" d="M363.002 324.942s27.272-1.621 33.559-3.062c6.287-1.44 9.386-6.989 11.471-12.517 2.086-5.529 1.591-12.124 1.591-12.124s17.564-5.114 22.62-7.614c5.056-2.5 14.152-8.793.832-8.793-13.319 0-25.043 4.879-25.043 4.879s19.8-14.74 25.508-19.446c5.708-4.706 10.641-14.991-3.841-10.846-14.482 4.144-28.197 13.095-28.197 13.095s15.931-19.582 20.913-26.206c4.983-6.623 3.026-12.868-6.958-6.434s-20.515 16.53-23.199 18.667c-2.685 2.136-3.598 1.139-1.484-1.96 2.113-3.099 11.557-18.709 15.529-26.268 3.973-7.558-.365-17.345-10.249-6.133-9.884 11.213-43.121 73.769-43.121 73.769l10.069 30.993z" clip-rule="evenodd"></path><path fill="url(#paint5_linear)" fill-rule="evenodd" d="M394.911 306.317c3.055-5.767 8.4-15.647 0-25.505-8.4-9.859-22.699-4.695-22.699-4.695s2.607-5.855 3.755-12.001c1.149-6.145-.299-13.873-4.576-17.935-4.277-4.062-9.926-.995-9.926-.995s.183 6.999-1.641 13.377c-1.824 6.378-6.202 16.727-8.009 19.906-1.807 3.18-2.156 3.959-1.078 8.25 1.078 4.29 12.265 38.223 12.265 38.223s28.854-12.858 31.909-18.625z" clip-rule="evenodd"></path><path fill="url(#paint6_linear)" fill-rule="evenodd" d="M447.38 118.958l5.27 59.856 35.465-26.209 17.511 23.337 3.839-13.811 19.432 13.811L521.223 90l-73.843 28.958z" clip-rule="evenodd"></path><path fill="url(#paint7_linear)" fill-rule="evenodd" d="M461.811 284.404l-2.964-34.127 43.881-28.708 1.673-19.888 10.127 15.619 16.273-18.734 3.285 43.934-72.275 41.904z" clip-rule="evenodd"></path><path fill="url(#paint8_linear)" fill-rule="evenodd" d="M455.615 212.224l2.621 31.995 32.353-31.995-2.45-25.074-32.524 25.074z" clip-rule="evenodd"></path><path fill="url(#paint9_linear)" fill-rule="evenodd" d="M508.467 187.15l3.466 10.02 7.443-8.172-6.25-4.212-4.659 2.364z" clip-rule="evenodd"></path><path fill="#E5E5E4" fill-rule="evenodd" d="M366.873 150.812l2.692 47.754 46.969-18.368-2.684-47.783-46.977 18.397zM550.34 108.437l2.693 47.754 46.968-18.369-2.684-47.782-46.977 18.397zM466.039 302.872l1.462 25.949 25.237-13.849-1.456-25.964-25.243 13.864zM134.765 236.744c6.356 11.467 17.931 6.926 17.931 6.926l10.112 17.374h-.001s19.245 35.938 24.107 48.486c4.862 12.547 4.112 24.353-5.691 29.274-9.803 4.921-26.503 8.017-26.503 8.017s27.233 30.985 60.1 33.338c32.867 2.354 51.722-37.653 51.722-37.653s-14.146-4.881-21.571-8.862c-7.425-3.98-11.907-9.8-15.942-16.957-3.526-6.252-18.319-47.855-22.003-58.275 7.272-1.019 14.632-2.215 21.341-3.595 25.181-5.179 20.823-17.525 14.164-36.392-.471-1.333-.953-2.699-1.437-4.097-7.333-21.183-27.144-51.534-27.144-51.534s-11.631-17.131-16.988-18.499c-5.357-1.369-20.033 7.401-35.994 20.251-4.94 3.977-9.431 7.076-13.248 9.709-8.514 5.873-13.67 9.43-12.955 15.259 1.035 8.442 4.811 28.266 4.811 28.266s-11.167 7.496-4.811 18.964z" clip-rule="evenodd"></path><mask id="28vld24hgb" width="135" height="237" x="132" y="144" maskUnits="userSpaceOnUse"><path fill="#fff" fill-rule="evenodd" d="M134.765 236.744c6.356 11.467 17.931 6.926 17.931 6.926l10.112 17.374h-.001s19.245 35.938 24.107 48.486c4.862 12.547 4.112 24.353-5.691 29.274-9.803 4.921-26.503 8.017-26.503 8.017s27.233 30.985 60.1 33.338c32.867 2.354 51.722-37.653 51.722-37.653s-14.146-4.881-21.571-8.862c-7.425-3.98-11.907-9.8-15.942-16.957-3.526-6.252-18.319-47.855-22.003-58.275 7.272-1.019 14.632-2.215 21.341-3.595 25.181-5.179 20.823-17.525 14.164-36.392-.471-1.333-.953-2.699-1.437-4.097-7.333-21.183-27.144-51.534-27.144-51.534s-11.631-17.131-16.988-18.499c-5.357-1.369-20.033 7.401-35.994 20.251-4.94 3.977-9.431 7.076-13.248 9.709-8.514 5.873-13.67 9.43-12.955 15.259 1.035 8.442 4.811 28.266 4.811 28.266s-11.167 7.496-4.811 18.964z" clip-rule="evenodd"></path></mask><g fill-rule="evenodd" clip-rule="evenodd" mask="url(#28vld24hgb)"><path fill="url(#paint10_radial)" d="M162.807 261.044s19.245 35.938 24.107 48.486c4.861 12.547 4.112 24.353-5.691 29.274-9.804 4.921-26.504 8.017-26.504 8.017s27.234 30.985 60.101 33.338c32.867 2.354 51.721-37.653 51.721-37.653s-14.145-4.881-21.57-8.862c-7.425-3.98-11.907-9.8-15.942-16.957-4.036-7.157-22.837-60.638-22.837-60.638l-43.385 4.995z"></path><path fill="url(#paint11_radial)" d="M152.696 243.67s-11.574 4.541-17.93-6.926c-6.356-11.468 4.81-18.964 4.81-18.964s-3.775-19.824-4.81-28.266c-1.036-8.442 10.242-12.118 26.203-24.968 15.961-12.85 30.637-21.62 35.994-20.251 5.357 1.368 16.988 18.499 16.988 18.499s19.811 30.351 27.144 51.534c7.333 21.183 14.234 34.944-12.727 40.489-26.962 5.545-64.45 8.132-64.45 8.132l-11.222-19.279z"></path></g><path fill="url(#paint12_linear)" fill-rule="evenodd" d="M114.38 162.81s12.447 6.096 13.911 7.297c1.464 1.201 1.75 2.453 0 3.649-1.751 1.196-8.285 6.88-11.098 9.776-2.813 2.896-3.316 7.169 0 10.628 3.316 3.46 22.383 23.619 22.383 23.619s3.727-1.549 7.596-.774c3.868.774 8.337 4.028 8.337 4.028s4.618-9.754 2.007-20.27c-2.612-10.515-13.083-14.942-13.083-14.942s13.27-1.756 25.586-10.751c12.316-8.995 18.655-22.247 18.655-22.247s6.129 10.453 7.857 12.834c1.728 2.381 6.116 4.473 6.116-2.052 0-6.526-3.03-13.458-3.03-13.458s5.46 7.689 10.58 11.6c5.119 3.91 4.713-4.485 4.713-4.485s28.299 7.709 29.931-5.307c1.632-13.016-17.197-12.514-17.197-12.514s9.263-4.015 8.143-9.248c-1.119-5.232-36.895-9.524-60.695 3.641-23.799 13.166-33.634 30.557-33.634 30.557s-1.882-4.109-1.882-6.843v-6.034s-3.311 3.341-3.811 6.034c-.501 2.692.596 8.109.596 8.109s-3.872-3.478-9.383-4.461c-5.511-.984-12.598 1.614-12.598 1.614z" clip-rule="evenodd"></path><path stroke="#464E8E" stroke-linecap="round" stroke-width="2.681" d="M139.154 228.524s3.168-3.025 6.078-3.025c2.909 0 5.892 1.513 5.892 1.513"></path><path stroke="#464E8E" stroke-linecap="round" stroke-width="2.681" d="M144.295 225.918s-1.207 2.097-.807 4.677c.4 2.58 2.441 4.137 2.441 4.137"></path><path fill="#000" fill-rule="evenodd" d="M199.02 198.078c1.598-.428 2.125-3.644 1.177-7.182-.948-3.538-3.012-6.06-4.61-5.631-1.598.428-2.125 3.643-1.177 7.182.948 3.538 3.012 6.059 4.61 5.631zM225.124 192.515c1.598-.428 2.125-3.643 1.177-7.182-.949-3.538-3.013-6.06-4.61-5.631-1.598.428-2.125 3.643-1.177 7.182.948 3.538 3.012 6.059 4.61 5.631z" clip-rule="evenodd"></path><path stroke="#464E8E" stroke-linecap="round" stroke-width="4.022" d="M207.935 174.067s14.704 25.545 15.472 27.459c.768 1.914-6.473 3.282-6.473 3.282"></path><path fill="#474F8F" fill-rule="evenodd" d="M206.29 173.385c0-.709.492-1.319 1.192-1.432 1.515-.245 4.381-.607 8.066-.607 3.951 0 7.982.416 9.985.658.747.09 1.297.725 1.297 1.477 0 .91-.798 1.617-1.704 1.519-2.247-.244-6.295-.629-9.522-.629-2.908 0-5.759.312-7.525.553-.936.127-1.789-.595-1.789-1.539zM191.923 174.178c-.57-.679-1.516-.897-2.295-.476-1.41.762-3.796 2.2-6.465 4.44-2.866 2.405-5.467 5.238-6.863 6.834-.633.725-.625 1.794-.006 2.531.798.952 2.265.961 3.098.04 1.571-1.739 4.07-4.39 6.321-6.279 1.952-1.637 4.076-3.003 5.621-3.914 1.115-.659 1.421-2.184.589-3.176z" clip-rule="evenodd"></path><path fill="#fff" fill-opacity=".2" stroke="#464E8E" stroke-width="2.681" d="M207.518 197.234c0 9.866-7.437 17.702-16.418 17.702-8.981 0-16.418-7.836-16.418-17.702 0-9.866 7.437-17.702 16.418-17.702 8.981 0 16.418 7.836 16.418 17.702zM247.314 184.396c0 9.866-7.438 17.702-16.418 17.702-8.981 0-16.419-7.836-16.419-17.702 0-9.866 7.438-17.702 16.419-17.702 8.98 0 16.418 7.836 16.418 17.702z"></path><path stroke="#464E8E" stroke-width="2.681" d="M205.957 187.525s2.163-2.265 3.793-2.697c1.63-.432 3.793-.432 3.793-.432M174.131 201.525l-17.504 10.412"></path><path fill="#000" fill-opacity=".5" fill-rule="evenodd" stroke="#464E8E" stroke-width="2.681" d="M213.543 230.325s-2.118-2.636-4.686-2.636c-2.567 0-6.649 3.979-7.931 5.511-1.283 1.532 2.29 7.094 3.66 7.918 1.37.823 2.323.019 3.16-1.867.837-1.885 5.797-8.926 5.797-8.926z" clip-rule="evenodd"></path><mask id="lehctdatlc" width="541" height="420" x="60" y="90" maskUnits="userSpaceOnUse"><path fill="#fff" fill-rule="evenodd" d="M452.65 178.814l-5.27-59.856L521.223 90l7.674 85.942-19.432-13.811-3.839 13.811-17.511-23.337-35.465 26.209zM114.38 162.81s12.447 6.096 13.911 7.297l86.226 87.192c-2.487.392-4.994.763-7.491 1.113 3.684 10.42 18.477 52.022 22.003 58.274 4.035 7.158 8.517 12.977 15.942 16.958 7.404 3.969 21.49 8.834 21.57 8.861 0 0-18.854 40.007-51.721 37.654-32.867-2.354-60.1-33.339-60.1-33.339h-.001l-4.111-4.315s-42.662 12.129-61.59 37.784c-18.927 25.655-28.208 87.897-28.208 87.897s6.958 3.208 15.385 6.654v34.666l66.042-.001H310.58s-1.849-25.788-2.907-34.065c-1.057-8.278-2.211-16.546-2.211-16.546l26.696 12.99 6.576-13.639c-1.168 2.717-1.916 4.497-1.916 4.497s47.603 20.68 73.561 26.791c8.479 1.996 15.63 3.737 21.735 5.224l.014.003.006.002.006.001c12.573 3.062 20.705 5.042 26.852 5.94 9.134 1.335 18.116-2.626 12.385-16.926-1.492-3.725-3.348-8.322-5.277-13.085l.05.015-3.162-7.691c-4.431-10.918-8.424-20.705-8.424-20.705l-.102-.039c-10.553-25.677-25.107-61.103-29.695-72.333-6.287-15.386-16.705-45.144-19.855-54.208 1.293-1.951 2.287-4.161 3.12-6.368 2.085-5.529 1.591-12.124 1.591-12.124s17.564-5.113 22.619-7.613c5.056-2.5 14.152-8.793.833-8.793-13.319 0-25.043 4.879-25.043 4.879s19.799-14.74 25.507-19.446c5.708-4.706 10.641-14.991-3.841-10.846-14.482 4.144-28.197 13.095-28.197 13.095s15.931-19.582 20.914-26.206c4.982-6.624 3.025-12.868-6.959-6.434-7.581 4.886-15.478 11.883-20.015 15.903-1.438 1.274-2.538 2.249-3.184 2.763-2.684 2.137-3.597 1.14-1.484-1.959s11.557-18.71 15.53-26.268c3.972-7.558-.365-17.345-10.25-6.133-4.159 4.719-12.455 18.531-20.669 32.946-.809-2.72-2.134-5.18-3.993-6.946-4.277-4.062-9.926-.995-9.926-.995s.183 6.999-1.641 13.377c-1.824 6.378-6.202 16.727-8.009 19.906-1.807 3.18-2.156 3.959-1.078 8.25.256 1.019 1.083 3.714 2.196 7.229l-.001.002.059.18c3.458 10.92 9.578 29.498 9.989 30.746l.022.067 29.039 93.625-28.89-10.97-148.634-150.299c4.758-.75 9.445-1.577 13.851-2.483 25.181-5.178 20.823-17.525 14.164-36.391l-.179-.506c-.414-1.173-.835-2.37-1.258-3.592-7.333-21.183-27.144-51.533-27.144-51.533s-.104-.154-.298-.434c1.441-1.293 1.258-5.098 1.258-5.098s28.298 7.709 29.93-5.307c1.632-13.016-17.197-12.514-17.197-12.514s9.263-4.015 8.144-9.248c-1.12-5.232-36.896-9.524-60.695 3.641-23.8 13.166-33.635 30.557-33.635 30.557s-1.882-4.109-1.882-6.843v-6.034s-3.31 3.341-3.811 6.034c-.501 2.692.596 8.109.596 8.109s-3.872-3.478-9.383-4.461c-5.511-.984-12.598 1.614-12.598 1.614zm347.431 121.594l-2.964-34.127 43.881-28.708 1.673-19.888 10.126 15.619 16.274-18.734 3.285 43.933-72.275 41.905zm-3.575-40.185l-2.621-31.995 32.524-25.074 2.45 25.074-32.353 31.995zm50.231-57.069l3.466 10.02 7.444-8.172-6.251-4.212-4.659 2.364zm-138.902 11.416l-2.693-47.754 46.978-18.397 2.683 47.782-46.968 18.369zm180.775-90.129l2.693 47.754 46.968-18.369-2.683-47.782-46.978 18.397zm-82.839 220.384l-1.462-25.949 25.243-13.864 1.456 25.964-25.237 13.849z" clip-rule="evenodd"></path></mask></g></g><defs><radialGradient id="paint0_radial" cx="0" cy="0" r="1" gradientTransform="matrix(-59.15715 6.97135 -3.80254 -32.26742 135.352 485.143)" gradientUnits="userSpaceOnUse"><stop stop-color="#CDCDCB"></stop><stop offset="1" stop-color="#E5E5E4"></stop></radialGradient><radialGradient id="paint1_radial" cx="0" cy="0" r="1" gradientTransform="rotate(168.497 42.591 248.246) scale(71.397 97.5666)" gradientUnits="userSpaceOnUse"><stop stop-color="#303776"></stop><stop offset="1" stop-color="#424A85"></stop></radialGradient><radialGradient id="paint2_radial" cx="0" cy="0" r="1" gradientTransform="rotate(-104.644 329.911 111.612) scale(75.4814 51.1769)" gradientUnits="userSpaceOnUse"><stop stop-color="#303776"></stop><stop offset="1" stop-color="#424A85"></stop></radialGradient><radialGradient id="paint3_radial" cx="0" cy="0" r="1" gradientTransform="rotate(71.981 -94.08 480.35) scale(34.7202 48.1126)" gradientUnits="userSpaceOnUse"><stop stop-color="#CDCDCB"></stop><stop offset="1" stop-color="#E5E5E4"></stop></radialGradient><radialGradient id="paint4_radial" cx="0" cy="0" r="1" gradientTransform="matrix(21.28663 -19.50998 19.60795 21.39352 376.465 274.178)" gradientUnits="userSpaceOnUse"><stop stop-color="#C3C3C3"></stop><stop offset="1" stop-color="#E5E5E4"></stop></radialGradient><radialGradient id="paint10_radial" cx="0" cy="0" r="1" gradientTransform="matrix(-26.71906 4.9844 -5.5026 -29.49684 206.817 259.357)" gradientUnits="userSpaceOnUse"><stop stop-color="#B6B6B6"></stop><stop offset="1" stop-color="#E5E5E4"></stop></radialGradient><radialGradient id="paint11_radial" cx="0" cy="0" r="1" gradientTransform="rotate(30.332 -269.794 357.496) scale(120.585 122.443)" gradientUnits="userSpaceOnUse"><stop stop-color="#C4C4C4"></stop><stop offset="1" stop-color="#EBEBEA"></stop></radialGradient><linearGradient id="paint5_linear" x1="394.426" x2="349.371" y1="250.693" y2="256.962" gradientUnits="userSpaceOnUse"><stop stop-color="#F4F4F3"></stop><stop offset="1" stop-color="#E5E5E4"></stop></linearGradient><linearGradient id="paint6_linear" x1="420.935" x2="506.444" y1="161.091" y2="212.011" gradientUnits="userSpaceOnUse"><stop stop-color="#B7F600"></stop><stop offset="1" stop-color="#6DC700"></stop></linearGradient><linearGradient id="paint7_linear" x1="485.804" x2="528.297" y1="251.68" y2="263.727" gradientUnits="userSpaceOnUse"><stop stop-color="#B7F600"></stop><stop offset="1" stop-color="#6DC700"></stop></linearGradient><linearGradient id="paint8_linear" x1="458.618" x2="486.523" y1="234.268" y2="235.804" gradientUnits="userSpaceOnUse"><stop stop-color="#B7F600"></stop><stop offset="1" stop-color="#6DC700"></stop></linearGradient><linearGradient id="paint9_linear" x1="507.378" x2="517.013" y1="193.914" y2="195.854" gradientUnits="userSpaceOnUse"><stop stop-color="#B7F600"></stop><stop offset="1" stop-color="#6DC700"></stop></linearGradient><linearGradient id="paint12_linear" x1="185.887" x2="107.083" y1="99.152" y2="183.047" gradientUnits="userSpaceOnUse"><stop stop-color="#474F8F"></stop><stop offset="1" stop-color="#464E8E"></stop></linearGradient><clipPath id="clip0"><path fill="#fff" d="M0 0H600V600H0z"></path></clipPath><filter id="filter0_d" width="606.228" height="486.542" x="27.291" y="69.889" color-interpolation-filters="sRGB" filterUnits="userSpaceOnUse"><feFlood flood-opacity="0" result="BackgroundImageFix"></feFlood><feColorMatrix in="SourceAlpha" values="0 0 0 0 0 0 0 0 0 0 0 0 0 0 0 0 0 0 127 0"></feColorMatrix><feOffset dy="13.407"></feOffset><feGaussianBlur stdDeviation="16.759"></feGaussianBlur><feColorMatrix values="0 0 0 0 0 0 0 0 0 0 0 0 0 0 0 0 0 0 0.3 0"></feColorMatrix><feBlend in2="BackgroundImageFix" result="effect1_dropShadow"></feBlend><feBlend in="SourceGraphic" in2="effect1_dropShadow" result="shape"></feBlend></filter></defs></svg>