<svg width="24" height="24" viewBox="0 0 24 24" fill="none" xmlns="http://www.w3.org/2000/svg" class="styles-goPremiumIcon-VmiweTXG"><path d="M19.4133 18.9235H4.58394L2 11.6643C3.11234 12.4426 4.44438 12.8814 5.85519 12.8814C8.66298 12.8814 10.8959 10.1193 11.9986 7.35428C13.1013 10.1193 15.3342 12.8814 18.1407 12.8814C19.5446 12.8814 20.8807 12.4368 22 11.6499L19.4133 18.9235ZM19.7877 21.7647H4.18322C3.81843 21.7647 3.52273 21.4554 3.52273 21.0497C3.52273 20.6699 3.81843 20.3621 4.18322 20.3621H19.7877C20.1525 20.3621 20.4482 20.6699 20.4482 21.077C20.4482 21.4554 20.1525 21.7647 19.7877 21.7647ZM12 6.16444C13.1046 6.16444 14 5.2322 14 4.08222C14 2.93224 13.1046 2 12 2C10.8954 2 9.99999 2.93224 9.99999 4.08222C9.99999 5.2322 10.8954 6.16444 12 6.16444ZM1.28571 10.9238C1.99579 10.9238 2.57143 10.3245 2.57143 9.58523C2.57143 8.84596 1.99579 8.24666 1.28571 8.24666C0.575634 8.24666 0 8.84596 0 9.58523C0 10.3245 0.575634 10.9238 1.28571 10.9238ZM22.7143 10.9238C23.4244 10.9238 24 10.3245 24 9.58523C24 8.84596 23.4244 8.24666 22.7143 8.24666C22.0042 8.24666 21.4286 8.84596 21.4286 9.58523C21.4286 10.3245 22.0042 10.9238 22.7143 10.9238Z" fill="#fff"></path></svg>