<svg xmlns="http://www.w3.org/2000/svg" width="17" height="15" viewBox="0 0 17 15" fill="white"><defs><filter id="cynnjkp54a"><feColorMatrix in="SourceGraphic" values="0 0 0 0 0.494118 0 0 0 0 0.529412 0 0 0 0 0.580392 0 0 0 1.000000 0"></feColorMatrix></filter></defs><g fill="none" fill-rule="evenodd"><g><g filter="url(#cynnjkp54a)" transform="translate(-296 -996) translate(0 907)"><g><path fill="#7E8794" d="M4.811.312h-.198V3.955C2.199 4.412.373 6.549.373 9.117c0 2.9 2.33 5.252 5.207 5.252H9.72c3.849 0 6.969-3.146 6.969-7.028 0-3.882-3.12-7.029-6.969-7.029h-4.91zM.77 9.117c0-2.485 1.852-4.534 4.24-4.819V.713h4.712c3.63 0 6.572 2.967 6.572 6.628 0 3.66-2.942 6.628-6.572 6.628H5.58c-2.657 0-4.811-2.172-4.811-4.852zm4.91-4.801c2.586.066 4.662 2.201 4.662 4.826 0 1.748-.921 3.28-2.302 4.127h1.757c3.211-.04 5.803-2.68 5.803-5.928 0-3.249-2.592-5.887-5.803-5.928H5.679v2.903zm4.018 4.8c0 2.294-1.844 4.153-4.117 4.153-2.274 0-4.117-1.859-4.117-4.152S3.306 4.965 5.58 4.965c2.273 0 4.117 1.859 4.117 4.152z" transform="translate(296 89)"></path></g></g></g></g></svg>