<svg width="283px" height="226px" viewBox="0 0 283 226" version="1.1" xmlns="http://www.w3.org/2000/svg" class="styles-noContent-2zJdbPVc"><title>watch_later</title><defs><polygon id="path-1" points="0.05735 0.690375 1.80735 0.690375 1.80735 2.2651125 0.05735 2.2651125"></polygon><rect id="path-3" x="0" y="0" width="162" height="183"></rect></defs><g id="Android-iOS-screen" stroke="none" stroke-width="1" fill="none" fill-rule="evenodd"><g id="Favourite-Parent-Mode" transform="translate(-39.000000, -208.000000)"><g id="watch_later" transform="translate(39.000000, 208.000000)"><g id="Group-3"><g id="Group-23" transform="translate(140.000000, 0.000000)"><mask id="mask-2" fill="white"><use href="#path-1"></use></mask><g id="Clip-22"></g><path d="M1.132725,0.691425 C1.195725,0.86205 1.255225,1.04055 1.316475,1.2138 C1.060975,1.08255 0.805475,0.953925 0.548225,0.83055 C0.742475,0.77805 0.938475,0.733425 1.132725,0.691425" id="Fill-21" fill="#FFFFFF" mask="url(#mask-2)"></path></g><rect id="Rectangle" stroke="#979797" fill="#D8D8D8" x="0.5" y="220.5" width="282" height="5"></rect></g><g id="Rectangle" transform="translate(61.000000, 38.000000)"><mask id="mask-4" fill="white"><use href="#path-3"></use></mask><g id="Mask"></g><rect stroke="#505871" mask="url(#mask-4)" x="6" y="1" width="150" height="187" rx="8"></rect><rect id="Rectangle-Copy" stroke="#505871" mask="url(#mask-4)" x="14" y="10" width="135" height="183" rx="7.19999981"></rect><path d="M22,10 L141,10 C145.418278,10 149,13.581722 149,18 L149,95 L149,95 L14,95 L14,18 C14,13.581722 17.581722,10 22,10 Z" fill="#33394A" mask="url(#mask-4)"></path><path d="M88.2956822,52.3829365 C88.6824209,52.680557 88.8757874,53.0608442 88.8757874,53.5238095 C88.8757874,53.9867748 88.6824209,54.367062 88.2956822,54.6646825 L73.6348419,62.8988095 C73.4238935,62.9980164 73.230527,63.047619 73.0547367,63.047619 C72.7734722,63.047619 72.5273694,62.9484137 72.316421,62.75 C72.1054726,62.5515863 72,62.3201071 72,62.0555556 L72,44.9920635 C72,44.7275119 72.1054726,44.4960327 72.316421,44.297619 C72.5273694,44.0992054 72.7734722,44 73.0547367,44 C73.2656851,44 73.4590516,44.0496027 73.6348419,44.1488095 L88.2956822,52.3829365 Z" id="ion-play---Ionicons" stroke="#505871" mask="url(#mask-4)"></path></g><path d="M122.846325,174.684916 C123.163327,174.684916 123.434854,174.798323 123.660913,175.02514 C123.886972,175.251956 124,175.524393 124,175.842458 C124,176.160523 123.886972,176.43296 123.660913,176.659777 C123.434854,176.886593 123.163327,177 122.846325,177 C122.529323,177 122.257796,176.886593 122.031737,176.659777 C121.805678,176.43296 121.69265,176.160523 121.69265,175.842458 L121.69265,175.764246 L119.798441,174.418994 C119.658128,174.617133 119.477544,174.77486 119.256682,174.892179 C119.035819,175.009498 118.798071,175.068156 118.54343,175.068156 C118.117296,175.068156 117.753528,174.916948 117.452116,174.614525 C117.150704,174.312103 117,173.947116 117,173.519553 C117,173.09199 117.150704,172.727003 117.452116,172.424581 C117.753528,172.122159 118.117296,171.97095 118.54343,171.97095 C118.985154,171.97095 119.359315,172.132587 119.665924,172.455866 L121.723831,171.415642 C121.703044,171.332216 121.69265,171.246183 121.69265,171.157542 C121.69265,170.839477 121.805678,170.56704 122.031737,170.340223 C122.257796,170.113407 122.529323,170 122.846325,170 C123.163327,170 123.434854,170.113407 123.660913,170.340223 C123.886972,170.56704 124,170.839477 124,171.157542 C124,171.475607 123.886972,171.748044 123.660913,171.97486 C123.434854,172.201677 123.163327,172.315084 122.846325,172.315084 C122.498142,172.315084 122.207128,172.182124 121.973274,171.916201 L119.969933,172.932961 C120.047885,173.120671 120.08686,173.3162 120.08686,173.519553 C120.08686,173.644693 120.07127,173.769832 120.040089,173.894972 L121.879733,175.208939 C121.988865,175.047299 122.127876,174.919554 122.296771,174.825698 C122.465665,174.731843 122.648848,174.684916 122.846325,174.684916 Z M122.42539,170.743017 C122.311061,170.857729 122.253898,170.997206 122.253898,171.161453 C122.253898,171.325699 122.31236,171.465176 122.429287,171.579888 C122.546214,171.6946 122.685226,171.751955 122.846325,171.751955 C123.007425,171.751955 123.146436,171.6946 123.263363,171.579888 C123.38029,171.465176 123.438753,171.325699 123.438753,171.161453 C123.438753,170.997206 123.38029,170.856425 123.263363,170.739106 C123.146436,170.621787 123.007425,170.563128 122.846325,170.563128 C122.685226,170.563128 122.544915,170.623091 122.42539,170.743017 Z M119.237194,174.215642 C119.429474,174.022718 119.525612,173.79069 119.525612,173.519553 C119.525612,173.248416 119.429474,173.016388 119.237194,172.823464 C119.044914,172.630539 118.813661,172.534078 118.54343,172.534078 C118.273198,172.534078 118.041946,172.630539 117.849666,172.823464 C117.657386,173.016388 117.561247,173.248416 117.561247,173.519553 C117.561247,173.79069 117.657386,174.022718 117.849666,174.215642 C118.041946,174.408567 118.273198,174.505028 118.54343,174.505028 C118.813661,174.505028 119.044914,174.408567 119.237194,174.215642 Z M123.259465,176.264804 C123.378991,176.150093 123.438753,176.010615 123.438753,175.846369 C123.438753,175.682122 123.38029,175.541341 123.263363,175.424022 C123.146436,175.306703 123.007425,175.248045 122.846325,175.248045 C122.685226,175.248045 122.546214,175.306703 122.429287,175.424022 C122.31236,175.541341 122.253898,175.682122 122.253898,175.846369 C122.253898,176.010615 122.31236,176.150093 122.429287,176.264804 C122.546214,176.379516 122.685226,176.436872 122.846325,176.436872 C123.007425,176.436872 123.145137,176.379516 123.259465,176.264804 Z" id="Share" fill="#444C63"></path><rect id="Rectangle" fill="#33394A" opacity="0.600000024" x="83" y="142" width="62" height="4"></rect><rect id="Rectangle-Copy-2" fill="#33394A" opacity="0.600000024" x="83" y="150" width="42" height="2"></rect><rect id="Rectangle-Copy-3" fill="#33394A" opacity="0.600000024" x="133" y="150" width="32" height="2"></rect><rect id="Rectangle-Copy-4" fill="#33394A" opacity="0.600000024" x="173" y="150" width="20" height="2"></rect><circle id="Oval-Copy" fill="#FFFFFF" cx="96" cy="174" r="13"></circle><path d="M102.695324,171.258929 C102.898442,171.733633 103,172.232884 103,172.756696 C103,173.329616 102.877284,173.869789 102.63185,174.377232 C102.386415,174.884675 102.043658,175.314358 101.603568,175.666295 C101.281964,175.952754 100.452576,176.685262 99.1153803,177.863839 C97.8628169,178.968756 97.0969028,179.643972 96.817615,179.889509 C96.7245191,179.96317 96.6187299,180 96.5002441,180 C96.3817584,180 96.2759692,179.96317 96.1828732,179.889509 C95.7681732,179.529388 94.6806598,178.567716 92.9203005,177.004464 C92.0824371,176.267853 91.6042698,175.850447 91.485784,175.752232 C91.451931,175.719494 91.4138469,175.686756 91.3715305,175.654018 C90.939904,175.302082 90.60561,174.874444 90.3686385,174.371094 C90.1316671,173.867743 90.0089515,173.333708 90.0004883,172.768973 C89.992025,172.253346 90.0935827,171.754095 90.3051643,171.271205 C90.4998194,170.81287 90.779103,170.40774 91.1430235,170.055804 C91.8539378,169.351931 92.7044833,169 93.6946855,169 C94.2363345,169 94.7504702,169.114582 95.237108,169.34375 C95.7237458,169.572918 96.144787,169.896203 96.5002441,170.313616 C96.8557013,169.896203 97.2767425,169.572918 97.7633803,169.34375 C98.2500181,169.114582 98.7641538,169 99.3058028,169 C100.296005,169 101.14655,169.347839 101.857465,170.043527 C102.221385,170.395463 102.500669,170.800593 102.695324,171.258929 Z" id="Path-Copy" stroke="#1B1B20"></path></g></g></g></svg>