<svg width="459" height="316" viewBox="0 0 459 316" fill="none" xmlns="http://www.w3.org/2000/svg" class="styles-noContent-2zJdbPVc"><path d="M446 0H13C5.8203 0 0 5.8203 0 13V303C0 310.18 5.8203 316 13 316H446C453.18 316 459 310.18 459 303V13C459 5.8203 453.18 0 446 0Z" fill="#393E46"></path><path fill-rule="evenodd" clip-rule="evenodd" d="M55 56H398V227H55V56Z" fill="#575D68"></path><path d="M316.368 262.7V258.304H320.545V257.231H316.368V253.827H321.221V252.747H315.055V262.7H316.368V262.7ZM325.311 262.837C326.263 262.837 326.986 262.547 327.478 261.969L327.505 262.7H328.708V255.304H327.444V260.684C327.124 261.404 326.482 261.764 325.516 261.764C324.605 261.764 324.149 261.203 324.149 260.082V255.304H322.884V260.116C322.889 261.014 323.097 261.692 323.51 262.15C323.922 262.608 324.523 262.837 325.311 262.837V262.837ZM332.471 262.7V252.2H331.205V262.7H332.47H332.471ZM336.334 262.7V252.2H335.07V262.7H336.334ZM345.826 262.837C347.066 262.837 347.996 262.36 348.616 261.408L347.843 260.806C347.61 261.107 347.339 261.349 347.029 261.531C346.719 261.713 346.341 261.804 345.894 261.804C345.266 261.804 344.747 261.58 344.339 261.131C343.931 260.682 343.719 260.093 343.7 259.364H348.71V258.838C348.71 257.658 348.444 256.75 347.911 256.117C347.378 255.484 346.631 255.167 345.669 255.167C345.081 255.167 344.535 255.33 344.032 255.656C343.528 255.981 343.136 256.433 342.856 257.009C342.576 257.586 342.436 258.241 342.436 258.974V259.207C342.436 260.31 342.75 261.19 343.379 261.849C344.008 262.507 344.824 262.837 345.826 262.837V262.837ZM347.446 258.325H343.741C343.823 257.655 344.037 257.135 344.384 256.763C344.73 256.392 345.158 256.206 345.669 256.206C346.198 256.206 346.617 256.382 346.927 256.736C347.237 257.089 347.41 257.586 347.447 258.229V258.325H347.446ZM351.906 265.544V261.982C352.42 262.552 353.126 262.837 354.024 262.837C354.904 262.837 355.601 262.493 356.116 261.804C356.631 261.116 356.888 260.209 356.888 259.084V258.968C356.888 257.774 356.63 256.842 356.113 256.172C355.595 255.502 354.893 255.167 354.003 255.167C353.088 255.167 352.373 255.486 351.857 256.124L351.796 255.304H350.64V265.544H351.905H351.906ZM353.641 261.804C352.862 261.804 352.283 261.467 351.905 260.793V257.259C352.288 256.579 352.862 256.24 353.628 256.24C354.248 256.24 354.735 256.482 355.091 256.965C355.446 257.448 355.624 258.106 355.624 258.94C355.624 259.888 355.445 260.603 355.087 261.083C354.729 261.564 354.247 261.804 353.641 261.804V261.804ZM359.714 254.059C359.96 254.059 360.146 253.991 360.274 253.854C360.402 253.718 360.465 253.547 360.465 253.342C360.465 253.137 360.402 252.963 360.275 252.822C360.146 252.681 359.96 252.61 359.714 252.61C359.467 252.61 359.282 252.68 359.156 252.822C359.031 252.963 358.968 253.137 358.968 253.342C358.968 253.547 359.031 253.718 359.156 253.854C359.282 253.991 359.467 254.059 359.714 254.059V254.059ZM360.336 262.7V255.304H359.07V262.7H360.335H360.336ZM365.546 262.837C366.39 262.837 367.076 262.637 367.604 262.239C368.133 261.839 368.397 261.31 368.397 260.649C368.397 260.253 368.302 259.917 368.113 259.641C367.924 259.365 367.633 259.129 367.242 258.933C366.85 258.737 366.338 258.569 365.707 258.428C365.076 258.286 364.64 258.138 364.398 257.983C364.156 257.828 364.036 257.598 364.036 257.293C364.036 256.969 364.166 256.707 364.426 256.507C364.686 256.307 365.046 256.206 365.506 256.206C365.952 256.206 366.322 256.331 366.616 256.582C366.91 256.832 367.057 257.131 367.057 257.477H368.329C368.329 256.803 368.068 256.249 367.546 255.817C367.024 255.383 366.344 255.167 365.506 255.167C364.708 255.167 364.053 255.377 363.54 255.796C363.027 256.215 362.771 256.728 362.771 257.334C362.771 257.698 362.861 258.013 363.041 258.277C363.221 258.541 363.499 258.769 363.875 258.961C364.251 259.152 364.759 259.316 365.399 259.453C366.039 259.59 366.489 259.753 366.746 259.942C367.004 260.131 367.132 260.396 367.132 260.738C367.132 261.062 366.988 261.32 366.698 261.514C366.408 261.708 366.025 261.804 365.546 261.804C365.026 261.804 364.609 261.68 364.292 261.432C363.975 261.184 363.806 260.847 363.782 260.424H362.518C362.518 260.861 362.647 261.268 362.904 261.644C363.162 262.02 363.518 262.313 363.974 262.522C364.43 262.732 364.954 262.837 365.546 262.837V262.837ZM373.546 262.837C374.212 262.837 374.801 262.677 375.313 262.358C375.826 262.039 376.22 261.594 376.496 261.022C376.772 260.45 376.91 259.804 376.91 259.084V258.994C376.91 257.837 376.599 256.91 375.976 256.213C375.354 255.515 374.54 255.167 373.533 255.167C372.881 255.167 372.301 255.324 371.793 255.638C371.285 255.953 370.888 256.4 370.603 256.978C370.319 257.558 370.176 258.208 370.176 258.933V259.023C370.176 260.171 370.487 261.093 371.109 261.791C371.731 262.488 372.544 262.837 373.546 262.837V262.837ZM373.546 261.804C372.908 261.804 372.399 261.556 372.018 261.059C371.638 260.563 371.448 259.904 371.448 259.084C371.448 258.159 371.639 257.448 372.022 256.951C372.405 256.454 372.908 256.206 373.532 256.206C374.171 256.206 374.682 256.458 375.067 256.961C375.452 257.465 375.645 258.122 375.645 258.933C375.645 259.84 375.455 260.546 375.078 261.049C374.699 261.553 374.188 261.804 373.546 261.804V261.804ZM381.56 262.837C382.462 262.837 383.166 262.527 383.672 261.907L383.734 262.7H384.896V252.2H383.631V256.055C383.125 255.463 382.439 255.167 381.574 255.167C380.704 255.167 379.999 255.512 379.461 256.202C378.923 256.892 378.655 257.805 378.655 258.94V259.036C378.655 260.166 378.925 261.082 379.465 261.784C380.005 262.486 380.703 262.837 381.56 262.837ZM381.874 261.763C381.264 261.763 380.785 261.526 380.439 261.053C380.092 260.579 379.919 259.923 379.919 259.083C379.919 258.145 380.092 257.436 380.439 256.958C380.785 256.479 381.269 256.24 381.888 256.24C382.672 256.24 383.253 256.589 383.631 257.286V260.683C383.262 261.403 382.676 261.763 381.874 261.763V261.763ZM390.394 262.837C391.634 262.837 392.563 262.36 393.183 261.408L392.41 260.806C392.178 261.107 391.907 261.349 391.597 261.531C391.287 261.713 390.909 261.804 390.462 261.804C389.833 261.804 389.315 261.58 388.907 261.131C388.499 260.682 388.286 260.093 388.267 259.364H393.278V258.838C393.278 257.658 393.012 256.75 392.478 256.117C391.945 255.484 391.198 255.167 390.236 255.167C389.649 255.167 389.103 255.33 388.599 255.656C388.096 255.981 387.704 256.433 387.423 257.009C387.143 257.586 387.003 258.241 387.003 258.974V259.207C387.003 260.31 387.318 261.19 387.946 261.849C388.576 262.507 389.391 262.837 390.394 262.837V262.837ZM392.014 258.325H388.309C388.391 257.655 388.605 257.135 388.951 256.763C389.298 256.392 389.726 256.206 390.236 256.206C390.766 256.206 391.184 256.382 391.494 256.736C391.804 257.089 391.977 257.586 392.014 258.229V258.325V258.325Z" fill="#575D68"></path><path d="M291.844 258.25L286.282 254.654C286.126 254.554 285.929 254.547 285.766 254.637C285.605 254.727 285.504 254.9 285.504 255.087V262.277C285.504 262.465 285.605 262.637 285.767 262.728C285.843 262.77 285.927 262.791 286.01 262.791C286.105 262.791 286.2 262.764 286.282 262.711L291.844 259.116C291.99 259.022 292.078 258.858 292.078 258.683C292.078 258.507 291.99 258.343 291.844 258.249V258.25ZM286.516 261.342V256.022L290.63 258.682L286.516 261.342Z" fill="#575D68"></path><path d="M300.83 248H274.47C274.21 248 274 248.203 274 248.454V268.423C274 268.673 274.21 268.876 274.47 268.876H300.83C301.09 268.876 301.301 268.674 301.301 268.423V248.454C301.301 248.203 301.091 248 300.831 248H300.83ZM278.706 257.984H274.94V253.9H278.706V257.984V257.984ZM274.94 258.892H278.706V262.977H274.94V258.892V258.892ZM279.647 263.43V248.908H295.651V267.969H279.648V263.43H279.647ZM300.357 257.984H296.592V253.9H300.358V257.984H300.357ZM296.592 258.892H300.358V262.977H296.592V258.892ZM300.36 248.908V252.992H296.594V248.908H300.36ZM274.94 248.908H278.706V252.992H274.94V248.908ZM274.94 267.968V263.884H278.706V267.969H274.94V267.968ZM300.358 267.968H296.592V263.884H300.358V267.969V267.968Z" fill="#575D68"></path><path fill-rule="evenodd" clip-rule="evenodd" d="M72.584 253.313C72.961 254.219 73.15 255.172 73.15 256.172C73.15 257.266 72.922 258.297 72.466 259.266C72.01 260.234 71.373 261.055 70.556 261.726C69.958 262.273 68.418 263.672 65.934 265.922C63.607 268.032 62.184 269.32 61.665 269.789C61.492 269.929 61.295 270 61.075 270C60.855 270 60.659 269.93 60.485 269.79C59.715 269.102 57.695 267.266 54.425 264.281C52.869 262.875 51.98 262.078 51.76 261.891C51.697 261.828 51.626 261.766 51.548 261.703C50.746 261.031 50.125 260.215 49.685 259.253C49.245 258.293 49.017 257.273 49.001 256.195C48.985 255.211 49.174 254.258 49.567 253.335C49.929 252.461 50.447 251.688 51.123 251.015C52.444 249.672 54.024 249 55.863 249C56.87 249 57.825 249.219 58.729 249.656C59.633 250.094 60.415 250.711 61.075 251.508C61.735 250.711 62.518 250.094 63.422 249.656C64.326 249.219 65.282 249 66.287 249C68.127 249 69.707 249.664 71.027 250.992C71.704 251.664 72.222 252.437 72.584 253.312V253.313ZM62.396 252.75C62.066 253.188 61.626 253.406 61.076 253.406C60.526 253.406 60.085 253.188 59.755 252.75C59.283 252.14 58.705 251.664 58.021 251.32C57.338 250.977 56.618 250.805 55.864 250.805C54.527 250.805 53.372 251.297 52.397 252.281C51.894 252.781 51.509 253.359 51.241 254.016C50.943 254.703 50.801 255.43 50.817 256.196C50.817 256.992 50.982 257.754 51.312 258.48C51.642 259.207 52.114 259.82 52.727 260.32C52.758 260.367 52.821 260.422 52.916 260.484C52.931 260.5 52.947 260.524 52.963 260.554C53.246 260.804 53.985 261.469 55.18 262.547L56.312 263.578C58.576 265.625 60.164 267.062 61.075 267.891C61.799 267.234 63.009 266.141 64.707 264.609C66.83 262.656 68.378 261.25 69.353 260.391L69.4 260.344C69.998 259.859 70.47 259.258 70.815 258.539C71.161 257.789 71.335 257 71.335 256.172C71.335 255.406 71.193 254.68 70.91 253.992C70.642 253.336 70.257 252.758 69.754 252.258C68.779 251.289 67.624 250.805 66.287 250.805C65.533 250.805 64.813 250.973 64.129 251.309C63.446 251.645 62.868 252.125 62.396 252.75V252.75Z" fill="white"></path><path fill-rule="evenodd" clip-rule="evenodd" d="M28 23H67V35H28V23ZM81 23H101V35H81V23ZM115 23H135V35H115V23ZM149 23H169V35H149V23ZM183 23H203V35H183V23ZM217 23H237V35H217V23ZM349 23H429V35H349V23Z" fill="#575D68"></path><path fill-rule="evenodd" clip-rule="evenodd" d="M233.296 140.383C233.682 140.681 233.876 141.061 233.876 141.523C233.876 141.987 233.682 142.367 233.296 142.665L218.635 150.899C218.424 150.998 218.231 151.048 218.055 151.048C217.773 151.048 217.527 150.948 217.316 150.75C217.106 150.552 217 150.32 217 150.056V132.992C217 132.728 217.105 132.496 217.316 132.298C217.527 132.099 217.773 132 218.055 132C218.265 132 218.459 132.05 218.635 132.149L233.295 140.383H233.296Z" fill="#393D43"></path><path d="M61.5 297C82.2107 297 99 280.211 99 259.5C99 238.789 82.2107 222 61.5 222C40.7893 222 24 238.789 24 259.5C24 280.211 40.7893 297 61.5 297Z" fill="#282C33"></path><path fill-rule="evenodd" clip-rule="evenodd" d="M81.36 252.393C82.022 253.946 82.353 255.58 82.353 257.295C82.353 259.17 81.953 260.937 81.153 262.598C80.353 264.258 79.237 265.665 77.803 266.817C76.756 267.754 74.053 270.152 69.697 274.009C65.617 277.625 63.121 279.835 62.211 280.639C61.908 280.879 61.563 281 61.177 281C60.791 281 60.447 280.88 60.143 280.638C58.793 279.46 55.249 276.313 49.514 271.196C46.784 268.786 45.227 267.42 44.841 267.098C44.731 266.991 44.606 266.884 44.468 266.777C43.062 265.625 41.973 264.225 41.201 262.578C40.429 260.931 40.029 259.183 40.001 257.335C39.974 255.647 40.305 254.013 40.994 252.433C41.628 250.933 42.538 249.607 43.724 248.455C46.04 246.152 48.81 245 52.037 245C53.802 245 55.477 245.375 57.062 246.125C58.647 246.875 60.019 247.933 61.177 249.299C62.335 247.933 63.707 246.875 65.292 246.125C66.878 245.375 68.552 245 70.318 245C73.544 245 76.315 246.138 78.631 248.415C79.816 249.567 80.726 250.893 81.361 252.393H81.36Z" fill="white"></path></svg>