<svg xmlns="http://www.w3.org/2000/svg" width="36" height="36" fill="none" viewBox="0 0 36 36" class="styles-menuIconsEmphasize-2QJ6PiaS"><path fill="#2789FF" fill-rule="evenodd" d="M18 36c9.941 0 18-8.059 18-18S27.941 0 18 0 0 8.059 0 18s8.059 18 18 18z" clip-rule="evenodd"></path><path fill="#fff" d="M25.071 21.842c.6.6.929 1.395.929 2.242s-.33 1.644-.929 2.242c-.6.6-1.395.93-2.242.93-.848 0-1.642-.33-2.24-.93l-2.171-2.173c-.01 1.74-1.414 3.154-3.155 3.154-1.748 0-3.151-1.423-3.151-3.171v-5.222l-.028-.002c-.601.33-1.297.504-1.984.504-2.26 0-4.1-1.84-4.1-4.099 0-2.26 1.837-4.098 4.098-4.098.729 0 1.411.191 2.004.525C12.311 10.197 13.626 9 15.23 9c1.748-.003 3.158 1.42 3.158 3.17v2.15l2.184-2.174c.6-.6 1.4-.929 2.247-.929.848 0 1.648.33 2.247.93.6.598.93 1.394.93 2.241 0 .848-.329 1.645-.926 2.243l-2.605 2.604 2.606 2.607z"></path><path fill="#2789FF" d="M21.429 19.237l3.123-3.122c.46-.462.713-1.074.713-1.725s-.254-1.265-.713-1.724c-.462-.462-1.074-.714-1.725-.714s-1.302.254-1.764.714l-3.46 3.42V12.17c0-1.345-1.087-2.44-2.432-2.44-1.344 0-2.432 1.093-2.432 2.44v.072c.942.751 1.423 1.851 1.423 3.074 0 .773-.2 1.523-.61 2.176l.483 1.646c.022.075.005.157-.05.212-.04.04-.094.063-.15.063-.02 0-.071-.003-.09-.008l-1.006-.28v5.012c0 1.345 1.125 2.44 2.47 2.44.786 0 1.503-.375 1.949-.954.546-.932.226-1.77-.239-2.799h.005l-.7-1.552c-.102-.229.029-.307.19-.149l1.3 1.3 3.39 3.389c.462.461 1.073.714 1.725.714.65 0 1.264-.255 1.724-.714.462-.462.714-1.074.714-1.726 0-.652-.254-1.265-.714-1.725l-3.124-3.124z"></path><path fill="#2789FF" fill-rule="evenodd" d="M10.055 12.66c-.43 0-.768.338-.768.769V14.7H8.015c-.43 0-.768.337-.768.768 0 .43.338.768.768.768h1.272v1.148c0 .43.337.768.768.768s.768-.337.768-.768v-1.148h1.148c.431 0 .768-.337.768-.768s-.337-.768-.768-.768h-1.148v-1.272c0-.431-.337-.768-.768-.768z" clip-rule="evenodd"></path></svg>