<svg xmlns="http://www.w3.org/2000/svg" width="24" height="24" viewBox="0 0 24 24" class="styles-menuIconsBasic-2ehjzjAE" fill="#838991"><path fill="#838991" fill-rule="evenodd" d="M21 18.084c0-.847-.33-1.643-.929-2.242l-2.606-2.607 2.605-2.604c.597-.598.927-1.395.927-2.243 0-.847-.331-1.643-.93-2.242-.6-.6-1.4-.929-2.248-.929-.847 0-1.647.33-2.247.93l-2.184 2.172V6.17c0-1.749-1.41-3.172-3.158-3.169C8.626 3 7.31 4.197 7.102 5.744 6.51 5.41 5.827 5.22 5.1 5.22 2.837 5.219 1 7.058 1 9.317c0 2.26 1.84 4.099 4.1 4.099.687 0 1.383-.174 1.983-.504l.029.002v5.222c0 1.748 1.403 3.17 3.15 3.17 1.742 0 3.147-1.413 3.156-3.153l2.17 2.173c.6.6 1.394.93 2.24.93.848 0 1.644-.33 2.243-.93.6-.598.929-1.395.929-2.242zm-1.448-7.97l-3.123 3.123 3.124 3.124c.46.46.714 1.073.714 1.725 0 .652-.252 1.264-.714 1.726-.46.46-1.073.713-1.724.713-.652 0-1.263-.252-1.725-.713l-3.39-3.388-1.3-1.3c-.162-.16-.292-.081-.19.148l.184.409.516 1.143h-.005c.465 1.03.785 1.867.239 2.8-.446.578-1.163.953-1.949.953-1.345 0-2.47-1.095-2.47-2.44v-5.011l1.006.279c.019.005.07.008.09.008.056 0 .11-.022.15-.063.055-.055.072-.137.05-.212l-.483-1.646c.41-.653.61-1.403.61-2.176 0-1.223-.481-2.323-1.423-3.074V6.17c0-1.347 1.088-2.44 2.432-2.44 1.345 0 2.433 1.095 2.433 2.44v3.916l3.46-3.42c.46-.46 1.112-.714 1.763-.714.651 0 1.263.252 1.725.713.46.46.713 1.074.713 1.725s-.252 1.263-.713 1.724z" clip-rule="evenodd"></path><path fill="url(#paint0_linear)" fill-rule="evenodd" d="M5.055 6.66c-.43 0-.768.338-.768.769V8.7H3.015c-.43 0-.768.337-.768.768 0 .43.338.768.768.768h1.272v1.147c0 .431.337.769.768.769s.768-.338.768-.769v-1.147h1.148c.431 0 .768-.337.768-.768S7.402 8.7 6.971 8.7H5.823V7.429c0-.431-.337-.768-.768-.768z" clip-rule="evenodd"></path><defs><linearGradient id="paint0_linear" x1="4.993" x2="4.993" y1="6.661" y2="12.153" gradientUnits="userSpaceOnUse"><stop stop-color="#262931"></stop><stop offset="1" stop-color="#121317"></stop></linearGradient></defs></svg>