<svg xmlns="http://www.w3.org/2000/svg" width="20" height="21" viewBox="0 0 20 21" class="styles-hoverPlayIcon-3SsLahAR" fill="white"><path fill="white" d="M16.334 6.072c1.76 0 3.185 1.463 3.185 3.267v7.639c0 1.804-1.425 3.267-3.185 3.267H3.545c-1.759 0-3.185-1.463-3.185-3.267V9.339c0-1.804 1.426-3.267 3.185-3.267zm0 1.005H3.545C2.328 7.077 1.34 8.09 1.34 9.34v7.639c0 1.249.988 2.261 2.205 2.261h12.79c1.217 0 2.204-1.012 2.204-2.261V9.339c0-1.249-.987-2.262-2.205-2.262zM7.395 9.915a.48.48 0 01.487.002l4.68 2.79a.505.505 0 01.252.439.505.505 0 01-.253.44L7.882 16.4l-.245.075-.245-.075a.505.505 0 01-.245-.427v-5.629a.505.505 0 01.248-.43zm.732 1.309v3.87l3.234-1.936-3.234-1.934zm8.844-7.79c.271 0 .49.225.49.502 0 .278-.219.503-.49.503H2.908a.496.496 0 01-.49-.503c0-.277.22-.502.49-.502zM14.89.795c.27 0 .49.225.49.503s-.22.503-.49.503H4.991a.496.496 0 01-.49-.503c0-.278.22-.503.49-.503z"></path></svg>