<svg width="28" height="23" viewBox="0 0 28 23" fill="none" xmlns="http://www.w3.org/2000/svg" class="icon"><path d="M6.075 22.605c-1.86 0-3.348-.681-4.463-2.044C.537 19.157 0 17.506 0 15.607c0-1.57.29-3.035.868-4.397a16.538 16.538 0 0 1 2.17-3.716 21.214 21.214 0 0 1 2.85-2.911A32.773 32.773 0 0 1 8.74 2.415c.868-.619 1.57-1.073 2.108-1.362.578-.29.847-.434.806-.434l1.425 1.92c-.372.165-.868.496-1.487.991-.62.454-1.24 1.012-1.86 1.672a13.72 13.72 0 0 0-1.55 2.168c-.454.743-.682 1.465-.682 2.167 0 .413.248.826.744 1.239.496.372 1.033.826 1.612 1.363.579.495 1.116 1.114 1.612 1.857.495.702.743 1.57.743 2.601 0 .909-.186 1.735-.557 2.478a5.806 5.806 0 0 1-1.364 1.92 6.011 6.011 0 0 1-1.922 1.176 6.282 6.282 0 0 1-2.293.434zm15.249.124c-.95 0-1.819-.207-2.604-.62a6.628 6.628 0 0 1-2.045-1.672 8.136 8.136 0 0 1-1.364-2.415 10.36 10.36 0 0 1-.434-3.035c0-2.147.454-4.128 1.364-5.945.95-1.858 1.983-3.448 3.099-4.769A27.826 27.826 0 0 1 23.865 0l1.798 1.672c-.372.248-.827.64-1.364 1.177a12.207 12.207 0 0 0-1.426 1.92 18.7 18.7 0 0 0-1.116 2.23c-.289.784-.433 1.547-.433 2.29 0 .496.31.909.93 1.24.62.33 1.301.742 2.045 1.238.744.495 1.426 1.135 2.046 1.92.62.743.93 1.796.93 3.158a5.31 5.31 0 0 1-.496 2.292 6.006 6.006 0 0 1-1.364 1.858 6.31 6.31 0 0 1-1.922 1.3 5.65 5.65 0 0 1-2.17.434z" fill="#FFA424"></path></svg>