<svg width="28" height="23" viewBox="0 0 28 23" fill="none" xmlns="http://www.w3.org/2000/svg" class="icon"><path d="M21.2.124c1.86 0 3.347.681 4.463 2.043 1.074 1.404 1.611 3.056 1.611 4.955 0 1.569-.289 3.034-.867 4.397a16.538 16.538 0 0 1-2.17 3.716 21.211 21.211 0 0 1-2.851 2.91 32.755 32.755 0 0 1-2.852 2.168c-.868.62-1.57 1.074-2.107 1.363-.579.289-.848.433-.806.433l-1.426-1.92c.372-.165.868-.495 1.488-.99a13.59 13.59 0 0 0 1.86-1.673 13.717 13.717 0 0 0 1.55-2.167c.454-.743.681-1.466.681-2.168 0-.413-.248-.826-.744-1.239a20.342 20.342 0 0 1-1.612-1.362c-.578-.495-1.115-1.115-1.611-1.858-.496-.702-.744-1.569-.744-2.601 0-.908.186-1.734.558-2.477a5.807 5.807 0 0 1 1.364-1.92A6.012 6.012 0 0 1 18.905.557 6.282 6.282 0 0 1 21.2.124zM5.95 0c.951 0 1.82.206 2.604.62.785.412 1.467.97 2.046 1.671a8.136 8.136 0 0 1 1.364 2.416c.289.95.434 1.96.434 3.034 0 2.147-.455 4.129-1.364 5.946-.95 1.857-1.984 3.447-3.1 4.768A27.825 27.825 0 0 1 3.41 22.73l-1.797-1.673c.372-.247.826-.64 1.363-1.176.496-.537.972-1.177 1.426-1.92.413-.702.785-1.445 1.116-2.23.29-.784.434-1.548.434-2.291 0-.496-.31-.908-.93-1.239-.62-.33-1.302-.743-2.046-1.238-.743-.496-1.425-1.136-2.045-1.92C.31 8.299 0 7.246 0 5.883c0-.825.165-1.59.496-2.291A6.005 6.005 0 0 1 1.86 1.734 6.31 6.31 0 0 1 3.78.434 5.652 5.652 0 0 1 5.951 0z" fill="#FFA424"></path></svg>