<svg xmlns="http://www.w3.org/2000/svg" width="28" height="21" viewBox="0 0 28 21" fill="white"><g fill="#FFF"><path d="M17.844 10.25l-5.562-3.596c-.156-.1-.353-.107-.516-.017-.161.09-.262.263-.262.45v7.19c0 .188.101.36.263.451.076.042.16.063.243.063.095 0 .19-.027.272-.08l5.562-3.595c.146-.094.234-.258.234-.433 0-.176-.088-.34-.234-.434zm-5.328 3.092v-5.32l4.114 2.66-4.114 2.66z"></path><path d="M26.83 0H.47C.21 0 0 .203 0 .454v19.969c0 .25.21.453.47.453H26.83c.26 0 .471-.202.471-.453V.454c0-.251-.21-.454-.47-.454zM4.706 9.984H.94V5.9h3.766v4.084zm-3.766.908h3.766v4.085H.94v-4.085zm4.707 4.538V.908h16.004v19.061H5.648V15.43zm20.71-5.446h-3.765V5.9h3.766v4.084zm-3.765.908h3.766v4.085h-3.766v-4.085zM26.36.908v4.084h-3.766V.908h3.766zM.94.908h3.766v4.084H.94V.908zm0 19.06v-4.084h3.766v4.085H.94zm25.418 0h-3.766v-4.084h3.766v4.085z"></path></g></svg>